<svg xmlns="http://www.w3.org/2000/svg" viewBox="0 0 1234.81 162.14"><defs><style>.cls-1{fill:#fff;}</style></defs><path class="cls-1" d="M93.29,42l-29,19.43v97.18H41V77L0,104.56v-26l70-47V18.66H93.29Z"/><path class="cls-1" d="M209.7,18.46V134.88L186.38,158.2h-70V18.46Zm-33,116.42,9.72-9.53V41.78H139.73v93.1Z"/><path class="cls-1" d="M257.7,158.59H233L244.68,18.66h24.68Zm43.73,0h24.88L314.65,18.66H289.77Z"/><path class="cls-1" d="M442.91,158.39H396.27V135.07h23.32V55.19h-28l-17.29,103.2H349.62l17.11-103.2H349.62V31.87h21L373,18.46h24.68l-2.14,13.41h47.42Z"/><path class="cls-1" d="M476.25,158.66V77.07h98.56v66.59L553.65,157l-10.41-18.64,11.18-7.06V98.75h-19.8v59.18Zm20.39-59.91v38l17.59-.22V98.75Z"/><rect class="cls-1" x="677.29" y="73.21" width="158" height="19.87" transform="translate(839.43 -673.14) rotate(90)"/><rect class="cls-1" x="723.77" y="19.45" width="65.04" height="19.87"/><rect class="cls-1" x="723.77" y="73.62" width="65.04" height="19.87"/><rect class="cls-1" x="796.77" y="19.42" width="65.04" height="19.87"/><rect class="cls-1" x="796.77" y="62.42" width="65.04" height="19.87"/><rect class="cls-1" x="796.77" y="134.42" width="65.04" height="19.87"/><rect class="cls-1" x="828.43" y="120.56" width="46.87" height="19.87" transform="translate(982.36 -721.38) rotate(90)"/><polygon class="cls-1" points="815.62 72.35 796.77 134.42 815.79 140.48 834.64 78.1 815.62 72.35"/><path class="cls-1" d="M723.77,48.32v70.46h65V48.32Zm45.16,50.59H743.64V68.2h25.29Z"/><rect class="cls-1" x="723.77" y="127.78" width="65.04" height="19.87"/><rect class="cls-1" x="858.29" y="73.21" width="158" height="19.87" transform="translate(1020.43 -854.14) rotate(90)"/><rect class="cls-1" x="886.77" y="18.45" width="100.04" height="19.87"/><path class="cls-1" d="M886.77,47.32v70.46h100V47.32ZM966.93,67.2v5.42H906.64V67.2ZM906.64,97.91V92.49h60.29v5.42Z"/><rect class="cls-1" x="886.77" y="126.78" width="100.04" height="19.87"/><path class="cls-1" d="M702.73,20V136.45l-23.32,23.32h-70V20Zm-33,116.42,9.72-9.53V43.35H632.76v93.1Z"/><polygon class="cls-1" points="630.16 34.83 609.68 19.98 633.92 0.14 665.15 0 630.16 34.83"/><rect class="cls-1" x="622.59" y="61.78" width="65.04" height="19.87"/><rect class="cls-1" x="622.59" y="98.91" width="65.04" height="19.87"/><path class="cls-1" d="M1102.73,20V136.45l-23.32,23.32h-70V20Zm-33,116.42,9.72-9.53V43.35h-46.65v93.1Z"/><rect class="cls-1" x="1022.59" y="79.96" width="65.04" height="19.87"/><rect class="cls-1" x="1120.77" y="19.42" width="46.04" height="19.87"/><rect class="cls-1" x="1178.77" y="19.42" width="56.04" height="19.87"/><rect class="cls-1" x="1178.77" y="69.42" width="56.04" height="19.87"/><rect class="cls-1" x="1178.77" y="140.42" width="56.04" height="19.87"/><rect class="cls-1" x="1196.77" y="48.42" width="56.04" height="19.87" transform="translate(1283.14 -1166.43) rotate(90)"/><rect class="cls-1" x="1156.88" y="102.3" width="63.81" height="19.87" transform="translate(1301.03 -1076.55) rotate(90)"/><rect class="cls-1" x="1211.33" y="126.67" width="27" height="19.96" transform="translate(1361.47 -1088.18) rotate(90)"/><rect class="cls-1" x="1120.77" y="43.42" width="46.04" height="19.87"/><rect class="cls-1" x="1120.77" y="68.42" width="46.04" height="19.87"/><rect class="cls-1" x="1120.77" y="95.42" width="46.04" height="19.87"/><rect class="cls-1" x="1120.77" y="139.42" width="35.04" height="19.87"/><rect class="cls-1" x="1137.88" y="119.3" width="37.81" height="19.87" transform="translate(1286.03 -1027.55) rotate(90)"/><rect class="cls-1" x="1150.79" y="147.03" width="15.56" height="7.74" transform="translate(2084.5 -561.62) rotate(135)"/><rect class="cls-1" x="1110.77" y="120.42" width="40.04" height="19.87" transform="translate(1261.14 -1000.43) rotate(90)"/><polygon class="cls-1" points="1138.93 29.9 1153.88 26.09 1143.94 11.14 1126.81 11.14 1138.93 29.9"/></svg>